<svg width="400" height="300" viewBox="0 0 400 300" fill="none" xmlns="http://www.w3.org/2000/svg">
  <rect width="400" height="300" fill="url(#gradient5)"/>
  <rect x="60" y="80" width="80" height="100" fill="white" opacity="0.2" rx="8"/>
  <rect x="160" y="80" width="80" height="100" fill="white" opacity="0.2" rx="8"/>
  <rect x="260" y="80" width="80" height="100" fill="white" opacity="0.2" rx="8"/>
  <rect x="70" y="90" width="60" height="60" fill="white" opacity="0.3" rx="5"/>
  <rect x="170" y="90" width="60" height="60" fill="white" opacity="0.3" rx="5"/>
  <rect x="270" y="90" width="60" height="60" fill="white" opacity="0.3" rx="5"/>
  <rect x="70" y="160" width="60" height="10" fill="white" opacity="0.4" rx="2"/>
  <rect x="170" y="160" width="60" height="10" fill="white" opacity="0.4" rx="2"/>
  <rect x="270" y="160" width="60" height="10" fill="white" opacity="0.4" rx="2"/>
  <circle cx="320" cy="220" r="25" fill="#ff6b6b" opacity="0.8"/>
  <text x="320" y="227" text-anchor="middle" fill="white" font-size="16" font-weight="bold">3</text>
  <path d="M290 210 L310 210 L310 200 L340 200 L340 210 L350 210 L350 230 L290 230 Z" fill="white" opacity="0.3"/>
  <text x="200" y="40" text-anchor="middle" fill="white" font-size="18" font-weight="bold">E-commerce Store</text>
  <defs>
    <linearGradient id="gradient5" x1="0%" y1="0%" x2="100%" y2="100%">
      <stop offset="0%" style="stop-color:#fd79a8;stop-opacity:1" />
      <stop offset="100%" style="stop-color:#e84393;stop-opacity:1" />
    </linearGradient>
  </defs>
</svg>