<svg width="400" height="300" viewBox="0 0 400 300" fill="none" xmlns="http://www.w3.org/2000/svg">
  <rect width="400" height="300" fill="url(#gradient3)"/>
  <circle cx="150" cy="100" r="30" fill="#FFD700" opacity="0.8"/>
  <path d="M100 150 Q120 130, 140 150 Q160 130, 180 150 Q200 130, 220 150 Q240 130, 260 150" stroke="white" stroke-width="3" fill="none" opacity="0.6"/>
  <circle cx="200" cy="180" r="20" fill="white" opacity="0.3"/>
  <circle cx="180" cy="190" r="15" fill="white" opacity="0.4"/>
  <circle cx="220" cy="195" r="18" fill="white" opacity="0.3"/>
  <rect x="70" y="220" width="80" height="40" fill="white" opacity="0.2" rx="5"/>
  <rect x="170" y="220" width="80" height="40" fill="white" opacity="0.2" rx="5"/>
  <rect x="270" y="220" width="80" height="40" fill="white" opacity="0.2" rx="5"/>
  <text x="200" y="40" text-anchor="middle" fill="white" font-size="18" font-weight="bold">Weather App</text>
  <text x="110" y="245" text-anchor="middle" fill="white" font-size="12" font-weight="bold">25°C</text>
  <text x="210" y="245" text-anchor="middle" fill="white" font-size="12" font-weight="bold">Sunny</text>
  <text x="310" y="245" text-anchor="middle" fill="white" font-size="12" font-weight="bold">Clear</text>
  <defs>
    <linearGradient id="gradient3" x1="0%" y1="0%" x2="100%" y2="100%">
      <stop offset="0%" style="stop-color:#74b9ff;stop-opacity:1" />
      <stop offset="100%" style="stop-color:#0984e3;stop-opacity:1" />
    </linearGradient>
  </defs>
</svg>